<svg width="75" height="36" viewBox="0 0 75 36" fill="none" xmlns="http://www.w3.org/2000/svg">
    <rect width="36" height="36" rx="6" fill="#252C48" />
    <path d="M19 23V15" stroke="white" stroke-width="2" stroke-linecap="round"
        stroke-linejoin="round" />
    <path d="M24 23V11" stroke="white" stroke-width="2" stroke-linecap="round"
        stroke-linejoin="round" />
    <path d="M9 9V25C9 25.5304 9.21071 26.0391 9.58579 26.4142C9.96086 26.7893 10.4696 27 11 27H27"
        stroke="white" stroke-width="2" stroke-linecap="round" stroke-linejoin="round" />
    <path d="M14 23V20" stroke="white" stroke-width="2" stroke-linecap="round"
        stroke-linejoin="round" />
    <path
        d="M45.328 8.8H47.92V17.888H53.536V20H45.328V8.8ZM54.8083 11.392H57.3043V20H54.8083V11.392ZM56.0563 10.192C55.5976 10.192 55.2243 10.0587 54.9363 9.792C54.6483 9.52533 54.5043 9.19467 54.5043 8.8C54.5043 8.40533 54.6483 8.07467 54.9363 7.808C55.2243 7.54133 55.5976 7.408 56.0563 7.408C56.5149 7.408 56.8883 7.536 57.1763 7.792C57.4643 8.048 57.6083 8.368 57.6083 8.752C57.6083 9.168 57.4643 9.51467 57.1763 9.792C56.8883 10.0587 56.5149 10.192 56.0563 10.192ZM62.0528 11.584H64.2608V13.504H62.1168V20H59.6208V11.2C59.6208 10.2187 59.9088 9.44 60.4848 8.864C61.0714 8.288 61.8928 8 62.9488 8C63.3221 8 63.6741 8.04267 64.0048 8.128C64.3461 8.20267 64.6288 8.31467 64.8528 8.464L64.1968 10.272C63.9088 10.0693 63.5728 9.968 63.1888 9.968C62.4314 9.968 62.0528 10.384 62.0528 11.216V11.584ZM69.738 18.128C70.186 18.128 70.5807 18.064 70.922 17.936C71.274 17.7973 71.5993 17.584 71.898 17.296L73.226 18.736C72.4153 19.664 71.2313 20.128 69.674 20.128C68.7033 20.128 67.8447 19.9413 67.098 19.568C66.3513 19.184 65.7753 18.656 65.37 17.984C64.9647 17.312 64.762 16.5493 64.762 15.696C64.762 14.8533 64.9593 14.096 65.354 13.424C65.7593 12.7413 66.3087 12.2133 67.002 11.84C67.706 11.456 68.4953 11.264 69.37 11.264C70.1913 11.264 70.938 11.44 71.61 11.792C72.282 12.1333 72.8153 12.6347 73.21 13.296C73.6153 13.9467 73.818 14.72 73.818 15.616L67.45 16.848C67.6313 17.2747 67.914 17.5947 68.298 17.808C68.6927 18.0213 69.1727 18.128 69.738 18.128ZM69.37 13.152C68.7407 13.152 68.2287 13.3547 67.834 13.76C67.4393 14.1653 67.2313 14.7253 67.21 15.44L71.402 14.624C71.2847 14.176 71.0447 13.8187 70.682 13.552C70.3193 13.2853 69.882 13.152 69.37 13.152ZM47.487 30.055C46.915 30.055 46.4017 29.9303 45.947 29.681C45.4997 29.4317 45.1477 29.0833 44.891 28.636C44.6343 28.1813 44.506 27.6717 44.506 27.107C44.506 26.5423 44.6343 26.0363 44.891 25.589C45.1477 25.1417 45.4997 24.7933 45.947 24.544C46.4017 24.2947 46.915 24.17 47.487 24.17C47.9857 24.17 48.4293 24.269 48.818 24.467C49.214 24.6577 49.5257 24.94 49.753 25.314L49.17 25.71C48.9793 25.424 48.7373 25.2113 48.444 25.072C48.1507 24.9253 47.8317 24.852 47.487 24.852C47.069 24.852 46.6913 24.9473 46.354 25.138C46.024 25.3213 45.7637 25.5853 45.573 25.93C45.3897 26.2747 45.298 26.667 45.298 27.107C45.298 27.5543 45.3897 27.9503 45.573 28.295C45.7637 28.6323 46.024 28.8963 46.354 29.087C46.6913 29.2703 47.069 29.362 47.487 29.362C47.8317 29.362 48.1507 29.2923 48.444 29.153C48.7373 29.0137 48.9793 28.801 49.17 28.515L49.753 28.911C49.5257 29.285 49.214 29.571 48.818 29.769C48.422 29.9597 47.9783 30.055 47.487 30.055ZM54.1493 24.17C54.8753 24.17 55.451 24.3827 55.8763 24.808C56.309 25.226 56.5253 25.8383 56.5253 26.645V30H55.7443V26.722C55.7443 26.1207 55.594 25.6623 55.2933 25.347C54.9926 25.0317 54.5636 24.874 54.0063 24.874C53.383 24.874 52.888 25.061 52.5213 25.435C52.162 25.8017 51.9823 26.3113 51.9823 26.964V30H51.2013V21.838H51.9823V25.226C52.195 24.8887 52.4883 24.6283 52.8623 24.445C53.2363 24.2617 53.6653 24.17 54.1493 24.17ZM63.9471 24.214V30H63.1991V28.856C62.9645 29.2447 62.6528 29.5417 62.2641 29.747C61.8828 29.9523 61.4501 30.055 60.9661 30.055C60.4235 30.055 59.9321 29.9303 59.4921 29.681C59.0521 29.4317 58.7075 29.0833 58.4581 28.636C58.2088 28.1887 58.0841 27.679 58.0841 27.107C58.0841 26.535 58.2088 26.0253 58.4581 25.578C58.7075 25.1307 59.0521 24.786 59.4921 24.544C59.9321 24.2947 60.4235 24.17 60.9661 24.17C61.4355 24.17 61.8571 24.269 62.2311 24.467C62.6125 24.6577 62.9241 24.94 63.1661 25.314V24.214H63.9471ZM61.0321 29.362C61.4355 29.362 61.7985 29.2703 62.1211 29.087C62.4511 28.8963 62.7078 28.6287 62.8911 28.284C63.0818 27.9393 63.1771 27.547 63.1771 27.107C63.1771 26.667 63.0818 26.2747 62.8911 25.93C62.7078 25.5853 62.4511 25.3213 62.1211 25.138C61.7985 24.9473 61.4355 24.852 61.0321 24.852C60.6215 24.852 60.2511 24.9473 59.9211 25.138C59.5985 25.3213 59.3418 25.5853 59.1511 25.93C58.9678 26.2747 58.8761 26.667 58.8761 27.107C58.8761 27.547 58.9678 27.9393 59.1511 28.284C59.3418 28.6287 59.5985 28.8963 59.9211 29.087C60.2511 29.2703 60.6215 29.362 61.0321 29.362ZM66.8702 25.347C67.0535 24.9583 67.3249 24.665 67.6842 24.467C68.0509 24.269 68.5019 24.17 69.0372 24.17V24.929L68.8502 24.918C68.2415 24.918 67.7649 25.105 67.4202 25.479C67.0755 25.853 66.9032 26.3773 66.9032 27.052V30H66.1222V24.214H66.8702V25.347ZM73.3003 29.648C73.1536 29.78 72.974 29.8827 72.7613 29.956C72.5486 30.022 72.325 30.055 72.0903 30.055C71.5476 30.055 71.1296 29.9083 70.8363 29.615C70.543 29.3217 70.3963 28.9073 70.3963 28.372V22.949H71.1773V24.214H72.9263V24.874H71.1773V28.328C71.1773 28.6727 71.2616 28.9367 71.4303 29.12C71.599 29.296 71.8446 29.384 72.1673 29.384C72.5193 29.384 72.8053 29.285 73.0253 29.087L73.3003 29.648Z"
        fill="white" />
</svg>